<?xml version="1.0" encoding="UTF-8"?>
<svg viewBox="0 0 640 480" xmlns="http://www.w3.org/2000/svg">
 <g fill="#02023a" stroke-width="0">
  <path d="m284.03 189.67s14.856-33.049 20.314-42.752 9.703-25.772 3.032-44.571-17.587-35.477-24.863-41.843-44.571 0.607-87.323 32.747-60.035 69.737-63.977 81.259-16.07 46.699-9.703 82.78 16.676 54.274 44.268 59.731 43.662-9.097 48.21-16.07 10.612-15.161 3.335-30.624-8.102-27.894-2.08-43.964 17.847-23.953 27.853-30.018c10.006-6.064 27.896-9.409 40.934-6.675z"/>
  <path d="m143.64 312.53s20.082 12.135 45.318 8.806c0 0 2.685 3.759 4.94 3.437 0 0 2.041-1.985 1.826-5.342 0 0 29.854-9.588 29.103-38.902 0 0 5.799 6.338 12.242 10.526s8.162 11.705 7.41 18.686-1.612 20.83-15.25 29.744-27.422 10.82-35.867 10.82c-15.786 0-34.688-16.514-49.722-37.775z"/>
  <path d="m193.54 354.58s23.001 0.50101 41.615-14.22c0 0 2.802 1.305 4.454-0.029999 0 0 0.687-2.561-1.086-5.139 0 0 19.888-20.313 5.306-43.361 0 0 7.246 0.685 14.288 1.976 5.024 0.92099 12.012 6.307 14.812 10.339 3.725 5.365 8.645 17.404 1.978 31.043-6.665 13.64-16.789 21.75-23.55 25.787-12.637 7.546-35.644 3.395-57.817-6.395z"/>
  <path d="m254.13 362.3s17.903-8.827 25.295-28.81c0 0 3.783-0.55499 4.426-2.349 0 0-0.65201-2.271-3.182-3.396 0 0 5.795-24.838-15.859-35.488 0 0 5.82-2.898 11.765-5.239 4.241-1.671 12.021-0.87201 15.997 0.875 5.293 2.323 14.555 9.16 15.744 22.68 1.191 13.521-2.781 24.468-6.067 30.729-6.142 11.703-26.778 17.981-48.119 20.998z"/>
  <path d="m306.54 342.49s8.117-14.685 5.488-33.319c0 0 2.366-1.739 2.172-3.398 0 0-0.992-1.507-3.416-1.404 0 0-7.21-21.916-28.368-21.836 0 0 3.791-6.141 7.546-10.296 2.679-2.965 10.259-4.279 14.063-4.458 5.061-0.23801 16.432 2.594 22.638 12.746 6.208 10.152 7.57 19.933 7.432 26.131-0.258 11.583-11.975 25.144-27.555 35.834z"/>
  <path d="m337.18 302.41s-1.188-15.722-11.976-28.522c0 0-0.022003-0.75601-0.68298-2.056 0 0-1.051-1.104-2.525-0.97501 0 0-15.792-13.108-31.697-3.05 0 0-0.04599-6.417 0.819-11.323 0.61801-3.501 5.709-8.074 8.49-10.007 3.7-2.57 13.608-5.811 23.083-1.094 9.477 4.718 15.125 11.443 17.952 16.18 5.281 8.851 3.225 25.428-3.463 40.847z"/>
  <path d="m343.04 258.01s-7.135-12.766-21.286-18.536c0 0-0.314-0.63-1.382-1.422 0 0-1.322-0.439-2.524 0.36301 0 0-18.524-3.675-28.12 12.337 0 0-2.177-4.208-3.374-8.769-1.418-5.401 1.365-10.746 2.976-13.692 2.142-3.92 9.313-8.852 19.201-9.315 9.89-0.461 15.832 2.117 20.078 4.802 7.935 5.015 14.106 18.015 14.431 34.232z"/>
  <path d="m328.19 219.38s-11.684-6.648-25.706-4.751c0 0-0.54401-0.345-1.771-0.479 0 0-1.263 0.25601-1.85 1.413 0 0-16.539 5.477-16.72 22.137 0 0-3.713-2.27-6.805-5.251-3.663-3.531-3.938-8.903-4.029-11.901-0.121-3.984 3.308-11.007 11.001-15.802 7.695-4.794 13.655-5.471 18.31-5.306 8.697 0.31 19.72 7.573 27.57 19.94z"/>
  <path d="m299.05 197.78s-12.249-0.174-22.521 7.568c0 0-0.586-0.036011-1.619 0.399 0 0-0.88699 0.767-0.832 1.957 0 0-10.661 11.738-3.33 25.226 0 0-3.963-0.181-7.754-1.209-4.489-1.221-7.117-5.423-8.535-7.796-1.883-3.152-2.313-10.323 1.637-17.594 3.953-7.268 8.377-10.453 12.143-12.383 7.036-3.603 19.038-2.642 30.811 3.832z"/>
  <path d="m263.22 194.37s-5.492 4.762-10.874 14.939c0 0-0.38901 0.231-0.905 1.153 0 0-0.349 0.72401-0.16901 1.708 0 0-4.055 13.705 7.651 22.566 0 0-3.387 1.239-6.98 1.7-4.256 0.543-8.191-2.097-10.357-3.611-2.878-2.012-5.552-7.444-5.258-15 0.297-7.553 1.861-9.927 4.21-12.888 4.389-5.531 10.395-9.02 22.682-10.567z"/>
  <path d="m235.8 207.91s-2.286 5.896-2.015 15.915c0 0-0.21001 0.336-0.209 1.256 0 0 0.04599 0.69699 0.64099 1.381 0 0 2.956 12.188 16.492 14.225 0 0-2.184 2.332-4.889 4.153-3.207 2.152-7.602 1.729-10.05 1.448-3.252-0.373-7.897-3.458-11.102-9.385-3.201-5.926-3.014-8.389-2.458-11.622 1.042-6.042 4.325-11.175 13.59-17.371z"/>
  <path d="m218.89 231.13s0.88701 5.376 5.528 12.655c0 0-0.009995 0.343 0.39801 1.02 0 0 0.34399 0.495 1.095 0.735 0 0 7.625 7.687 18.735 3.156 0 0 0.024994 3.331-1.209 5.882-1.465 3.02-4.749 3.787-7.576 4.915-2.665 1.063-7.486 0.96701-12.527-1.982-5.037-2.949-5.987-4.854-7-7.489-1.89-4.929-1.688-10.184 2.556-18.892z"/>
  <path d="m217.15 256.2s3.068 3.859 10.029 7.408c0 0 0.14099 0.27902 0.769 0.62003 0 0 0.49699 0.22699 1.214 0.051971 0 0 9.571 2.42 16.653-6.614 0 0 1.474 2.646 1.581 5.283 0.123 3.128-2.22 5.342-4.033 7.62-1.709 2.149-5.683 4.425-11.08 4.526-5.394 0.104-7-0.95398-8.975-2.564-3.69-3.014-5.818-7.308-6.158-16.331z"/>
  <path d="m250.41 264.63s-1.631 15.89-22.475 12.809c0 0 8.096 11.058 20.904 5.801 0-0.001007 13.352-9.125 1.571-18.61z"/>
  <path d="m257.04 267.76s7.376 12.02-10.117 20.646c0 0 11.538 3.479 18.412-6.853 0 0.001007 5.791-13.224-8.295-13.793z"/>
  <path d="m264.99 267.65s10.399 6.391-0.94 20.54c0 0 11.468-1.307 12.338-12.742-3.1e-5 0 0.42899-13.26-11.398-7.798z"/>
  <path d="m269.59 262.14s12.164 1.021 8.413 18.762c0 0 9.506-7.213 4.966-16.251-4.539-9.039-11.668-4.501-13.379-2.511z"/>
  <path d="m271.35 258s9.445-4.779 15.066 9.426c0 0 3.596-9.385-4.021-13.704-7.617-4.321-10.725 2.102-11.045 4.278z"/>
  <path d="m271.02 252.63s5.516-8.023 16.317 0.963c0 0-1.237-9.16-9.29-9.287-8.053-0.129-7.729 6.426-7.027 8.324z"/>
  <path d="m268.05 248.22s0.77499-8.434 12.794-6.206c0 0-4.833-6.427-10.999-3.099-6.166 3.325-3.134 8.163-1.795 9.305z"/>
  <path d="m262.73 246.14s-2.808-6.784 7.313-9.926c0 0-6.303-2.98-9.69 2.063-3.39 5.038 0.88901 7.527 2.377 7.863z"/>
  <path d="m259.59 247.78s-5.906-2.115-2.089-10.325c0 0-5.502 2.28-4.253 7.319 1.245 5.036 5.276 3.755 6.342 3.006z"/>
  <path d="m256.33 250.43s-5.238 1.144-6.192-6.537c0 0-2.954 4.147 0.23399 7.232 3.186 3.086 5.525 0.32999 5.958-0.69501z"/>
  <path d="m255.35 254.31s-3.25 3.349-7.636-1.765c0 0-0.148 4.431 3.649 5.135 3.793 0.707 4.165-2.418 3.987-3.37z"/>
  <path d="m256.64 257.96s-0.774 3.889-6.262 2.263c0 0 1.938 3.23 4.972 1.98 3.032-1.245 1.857-3.645 1.29-4.243z"/>
  <path d="m259.08 260.18s1.553 2.583-2.364 4.475c0 0 2.741 0.82599 3.808-1.429 1.069-2.25-0.82001-3-1.444-3.046z"/>
 </g>
</svg>
